<svg width="24" height="24" viewBox="0 0 24 24" fill="none" xmlns="http://www.w3.org/2000/svg">
<circle cx="12" cy="12" r="8.25" stroke="#40474C" stroke-width="1.5"/>
<path d="M11.7422 15.5117C12.1564 15.5117 12.4922 15.8475 12.4922 16.2617C12.4922 16.6759 12.1564 17.0117 11.7422 17.0117C11.328 17.0117 10.9922 16.6759 10.9922 16.2617C10.9922 15.8475 11.328 15.5117 11.7422 15.5117Z" fill="#40474C" stroke="#40474C" stroke-width="0.5"/>
<path d="M12.2012 7.51172C13.7005 7.51182 14.8643 8.72237 14.8643 10.2119C14.8643 11.6221 13.7855 12.7769 12.4082 12.9033V13.8965C12.4082 14.2605 12.113 14.5555 11.749 14.5557C11.3849 14.5557 11.0889 14.2606 11.0889 13.8965V12.3408C11.0889 11.9316 11.4209 11.5999 11.8301 11.5996H12.1582C12.9245 11.5995 13.5459 10.9782 13.5459 10.2119C13.5459 9.44564 12.9245 8.8243 12.1582 8.82422C11.7859 8.82422 11.4468 8.96908 11.1963 9.20508C10.9596 9.42794 10.5326 9.54239 10.2178 9.27832C10.0101 9.10405 9.90746 8.78335 10.0762 8.51074C10.6396 7.60173 11.6907 7.51177 12.2012 7.51172Z" fill="#40474C" stroke="#40474C" stroke-width="0.5"/>
</svg>
